{"title":"Wont You Be My Neighbor 2018 720p WEB-DL x264 ESub [MW]","magnet":"magnet:?xt=urn:btih:059fe4296f86b669f2b201b418170c6ff3b9cec9&dn=Wont+You+Be+My+Neighbor+2018+720p+WEB-DL+x264+ESub+%5BMW%5D&tr=udp%3A%2F%2Ftracker.leechers-paradise.org%3A6969&tr=udp%3A%2F%2Fzer0day.ch%3A1337&tr=udp%3A%2F%2Fopen.demonii.com%3A1337&tr=udp%3A%2F%2Ftracker.coppersurfer.tk%3A6969&tr=udp%3A%2F%2Fexodus.desync.com%3A6969","uploader":"MFreaky","categoryP":"video","categoryS":"hd___movies","size":"782210148","seeders":"2","leechers":"1","description":"\n\r\nIMDB <a href=\"\nhttps://www.imdb.com/title/tt7681902/\" rel=\"nofollow\" target=\"_NEW\">\nhttps://www.imdb.com/title/tt7681902/</a>\r\n\r\nVideo\r\nID                                       : 1\r\nFormat                                   : AVC\r\nFormat/Info                              : Advanced Video Codec\r\nFormat profile                           : High@L4.1\r\nFormat settings                          : CABAC / 4 Ref Frames\r\nFormat settings, CABAC                   : Yes\r\nFormat settings, RefFrames               : 4 frames\r\nCodec ID                                 : V_MPEG4/ISO/AVC\r\nDuration                                 : 1 h 34 min\r\nBit rate                                 : 1 000 kb/s\r\nWidth                                    : 1 280 pixels\r\nHeight                                   : 688 pixels\r\nDisplay aspect ratio                     : 1.85:1\r\nFrame rate mode                          : Constant\r\nFrame rate                               : 23.976 (24000/1001) FPS\r\nColor space                              : YUV\r\nChroma subsampling                       : 4:2:0\r\nBit depth                                : 8 bits\r\nScan type                                : Progressive\r\nBits/(Pixel*Frame)                       : 0.047\r\nStream size                              : 658 MiB (88%)\r\nWriting library                          : x264 core 155 r2901 7d0ff22\r\nDefault                                  : Yes\r\nForced                                   : No\r\n\r\nAudio\r\nID                                       : 2\r\nFormat                                   : AAC\r\nFormat/Info                              : Advanced Audio Codec\r\nFormat profile                           : LC\r\nCodec ID                                 : A_AAC-2\r\nDuration                                 : 1 h 34 min\r\nBit rate                                 : 128 kb/s\r\nChannel(s)                               : 2 channels\r\nChannel positions                        : Front: L R\r\nSampling rate                            : 48.0 kHz\r\nFrame rate                               : 46.875 FPS (1024 SPF)\r\nCompression mode                         : Lossy\r\nStream size                              : 86.5 MiB (12%)\r\nLanguage                                 : English\r\nDefault                                  : Yes\r\nForced                                   : No","last_updated":"2018-08-23T12:08:26.857Z","parsed":{"xt":"urn:btih:059fe4296f86b669f2b201b418170c6ff3b9cec9","dn":"Wont You Be My Neighbor 2018 720p WEB-DL x264 ESub [MW]","tr":["udp://exodus.desync.com:6969","udp://open.demonii.com:1337","udp://tracker.coppersurfer.tk:6969","udp://tracker.leechers-paradise.org:6969","udp://zer0day.ch:1337"],"infoHash":"059fe4296f86b669f2b201b418170c6ff3b9cec9","infoHashBuffer":{"type":"Buffer","data":[5,159,228,41,111,134,182,105,242,178,1,180,24,23,12,111,243,185,206,201]},"name":"Wont You Be My Neighbor 2018 720p WEB-DL x264 ESub [MW]","announce":["udp://exodus.desync.com:6969","udp://open.demonii.com:1337","udp://tracker.coppersurfer.tk:6969","udp://tracker.leechers-paradise.org:6969","udp://zer0day.ch:1337"],"urlList":[]}}